<?xml version="1.0" encoding="UTF-8"?>
<svg width="24px" height="24px" viewBox="0 0 24 24" version="1.1" xmlns="http://www.w3.org/2000/svg" xmlns:xlink="http://www.w3.org/1999/xlink">
    <!-- Generator: Sketch 63.1 (92452) - https://sketch.com -->
    <title>iconfinder_office-03_809627</title>
    <desc>Created with Sketch.</desc>
    <g id="Page-1" stroke="none" stroke-width="1" fill="none" fill-rule="evenodd">
        <g id="iconfinder_office-03_809627" fill="#FF0000" fill-rule="nonzero">
            <path d="M23,0 L12,2 L1,0 C0.4,0 0,0.4 0,1 L0,21 C0,21.6 0.4,22 1,22 L12,24 L23,22 C23.6,22 24,21.6 24,21 L24,1 C24,0.4 23.6,0 23,0 Z M11,21.8 L2,20 L2,18 L11,20 L11,21.8 Z M11,19 L2,17 L2,2 L11,3.8 L11,19 Z M22,20 L13,21.8 L13,20 L22,18 L22,20 Z M22,17 L13,19 L13,3.8 L22,2 L22,17 Z" id="Shape"></path>
            <polygon id="Path" points="20 14 15 15 15 16 20 15"></polygon>
            <polygon id="Path" points="20 11 15 12 15 13 20 12"></polygon>
            <polygon id="Path" points="20 8 15 9 15 10 20 9"></polygon>
            <polygon id="Path" points="20 5 15 6 15 7 20 6"></polygon>
            <polygon id="Path" points="9 15 4 14 4 15 9 16"></polygon>
            <polygon id="Path" points="9 12 4 11 4 12 9 13"></polygon>
            <polygon id="Path" points="9 9 4 8 4 9 9 10"></polygon>
            <polygon id="Path" points="9 6 4 5 4 6 9 7"></polygon>
        </g>
    </g>
</svg>